<svg width="250" height="250" viewBox="0 0 250 250" fill="none" xmlns="http://www.w3.org/2000/svg">
<rect width="250" height="250" fill="none"/>
<path d="M119.76 30.3777C123.435 28.8553 127.565 28.8553 131.24 30.3777L188.703 54.1794C192.378 55.7018 195.298 58.6219 196.821 62.2973L220.622 119.76C222.145 123.435 222.145 127.565 220.622 131.24L196.821 188.703C195.298 192.378 192.378 195.298 188.703 196.821L131.24 220.622C127.565 222.145 123.435 222.145 119.76 220.622L62.2973 196.821C58.6219 195.298 55.7018 192.378 54.1794 188.703L30.3777 131.24C28.8553 127.565 28.8553 123.435 30.3777 119.76L54.1794 62.2973C55.7018 58.6219 58.6219 55.7018 62.2973 54.1794L119.76 30.3777Z" fill="url(#paint0_linear)"/>
<path d="M38.6705 139H41.1939V130.026L44.8778 125.897L55.12 139H58.1967L46.4432 124.143L58.2507 111.364H54.9311L41.4368 126.248H41.1939V111.364H38.6705V139ZM64.504 139.472C67.9585 139.472 70.0636 137.556 70.9273 135.721H71.0757V139H73.4777V124.925C73.4777 119.366 69.2945 117.989 66.1233 117.989C62.9521 117.989 59.6865 119.244 58.2831 122.631L60.5636 123.455C61.3193 121.673 63.195 120.148 66.1908 120.148C69.3349 120.148 71.0757 121.876 71.0757 124.71V125.195C71.0757 126.761 69.1325 126.788 65.651 127.219C60.9685 127.8 57.6893 129.109 57.6893 133.211C57.6893 137.205 60.7391 139.472 64.504 139.472ZM64.8278 137.273C62.1155 137.273 60.0913 135.829 60.0913 133.319C60.0913 130.809 62.1425 129.756 65.651 129.325C67.3513 129.122 70.374 128.744 71.0757 128.056V131.052C71.0757 134.452 68.6602 137.273 64.8278 137.273ZM78.4692 111.364H76.0673V139H78.4692V111.364ZM81.0521 139H83.4675V118.273H81.0521V139ZM82.28 114.71C83.2651 114.71 84.0883 113.928 84.0883 112.983C84.0883 112.038 83.2651 111.256 82.28 111.256C81.295 111.256 80.4853 112.038 80.4853 112.983C80.4853 113.928 81.295 114.71 82.28 114.71ZM85.9795 146.773H88.395V135.154H88.6109C89.4341 137.057 91.2153 139.432 94.9802 139.432C100.054 139.432 103.509 135.114 103.509 128.69C103.509 122.294 100.068 117.989 94.9397 117.989C91.1343 117.989 89.4475 120.364 88.6109 122.227H88.314V118.273H85.9795V146.773ZM88.3545 128.65C88.3545 123.684 90.635 120.175 94.6833 120.175C98.8531 120.175 101.093 123.873 101.093 128.65C101.093 133.481 98.8126 137.232 94.6833 137.232C90.6755 137.232 88.3545 133.656 88.3545 128.65ZM118.894 122.82C117.882 119.825 115.669 117.989 111.877 117.989C107.694 117.989 104.658 120.378 104.658 123.792C104.658 126.572 106.344 128.461 109.947 129.325L113.335 130.134C115.615 130.674 116.708 131.848 116.708 133.508C116.708 135.667 114.643 137.273 111.459 137.273C108.625 137.273 106.857 135.991 106.277 133.535L103.969 134.102C104.698 137.556 107.438 139.432 111.499 139.432C116.06 139.432 119.191 136.922 119.191 133.4C119.191 130.634 117.45 128.785 113.982 127.935L110.852 127.165C108.274 126.518 107.073 125.479 107.073 123.684C107.073 121.579 109.084 120.108 111.877 120.108C114.67 120.108 116.047 121.579 116.695 123.441L118.894 122.82ZM128.707 139.432C134.077 139.432 137.829 135.046 137.829 128.731C137.829 122.375 134.077 117.989 128.707 117.989C123.336 117.989 119.584 122.375 119.584 128.731C119.584 135.046 123.336 139.432 128.707 139.432ZM128.707 137.232C124.402 137.232 122 133.373 122 128.731C122 124.089 124.402 120.175 128.707 120.175C133.011 120.175 135.413 124.089 135.413 128.731C135.413 133.373 133.011 137.232 128.707 137.232ZM162.121 120.351C161.176 114.44 156.547 110.986 150.704 110.986C143.552 110.986 138.276 116.343 138.276 125.182C138.276 134.021 143.525 139.378 150.704 139.378C156.777 139.378 161.216 135.572 162.121 130.107L157.91 130.094C157.195 133.629 154.226 135.572 150.731 135.572C145.995 135.572 142.419 131.942 142.419 125.182C142.419 118.475 145.981 114.791 150.745 114.791C154.267 114.791 157.222 116.775 157.91 120.351H162.121ZM163.31 111.364V139H167.277V118.988H167.534L175.684 138.96H178.977L187.128 119.001H187.384V139H191.351V111.364H186.291L177.493 132.847H177.169L168.37 111.364H163.31ZM208.687 118.624H212.708C212.587 114.197 208.673 110.986 203.06 110.986C197.513 110.986 193.263 114.157 193.263 118.92C193.263 122.766 196.016 125.02 200.455 126.221L203.721 127.112C206.676 127.894 208.957 128.866 208.957 131.322C208.957 134.021 206.379 135.802 202.83 135.802C199.619 135.802 196.947 134.371 196.704 131.362H192.521C192.79 136.369 196.663 139.459 202.857 139.459C209.348 139.459 213.086 136.045 213.086 131.362C213.086 126.383 208.646 124.453 205.138 123.589L202.439 122.888C200.28 122.335 197.405 121.322 197.419 118.678C197.419 116.33 199.565 114.589 202.965 114.589C206.136 114.589 208.39 116.073 208.687 118.624Z" fill="#F0FFDD"/>
<defs>
<linearGradient id="paint0_linear" x1="55.5" y1="195.5" x2="194" y2="59.5" gradientUnits="userSpaceOnUse">
<stop stop-color="#69BA02"/>
<stop offset="1" stop-color="#ADE16A"/>
</linearGradient>
</defs>
</svg>
