<?xml version="1.0" standalone="no"?>
<!DOCTYPE svg PUBLIC "-//W3C//DTD SVG 20010904//EN"
 "http://www.w3.org/TR/2001/REC-SVG-20010904/DTD/svg10.dtd">
<svg version="1.0" xmlns="http://www.w3.org/2000/svg"
 width="700.000000pt" height="700.000000pt" viewBox="0 0 700.000000 700.000000"
 preserveAspectRatio="xMidYMid meet">
<metadata>
Created by potrace 1.11, written by Peter Selinger 2001-2013
</metadata>
<g transform="translate(0.000000,700.000000) scale(0.100000,-0.100000)"
fill="#000000" stroke="none">
<path d="M3433 6170 c-43 -9 -186 -67 -1148 -464 -380 -157 -588 -249 -624
-274 -30 -21 -72 -63 -93 -93 -26 -37 -147 -318 -383 -886 -189 -457 -349
-851 -355 -875 -12 -54 -12 -131 0 -184 12 -52 683 -1675 716 -1732 31 -52 81
-104 136 -138 51 -32 1664 -700 1738 -720 64 -16 118 -18 180 -3 42 9 1526
620 1687 694 84 39 159 105 196 172 26 49 684 1637 706 1706 19 57 15 183 -7
247 -16 44 -328 798 -589 1425 l-46 110 -169 176 -168 177 -783 325 c-430 179
-806 330 -835 336 -60 12 -98 13 -159 1z m2387 -2301 c57 -25 98 -63 121 -114
31 -68 28 -75 -39 -75 -57 0 -59 1 -75 35 -28 59 -119 88 -201 65 -54 -15 -85
-46 -92 -92 -9 -54 30 -93 119 -119 153 -44 195 -61 235 -90 95 -69 109 -205
30 -295 -104 -118 -361 -122 -470 -7 -30 31 -58 91 -58 123 0 18 6 20 60 20
55 0 60 -2 66 -24 19 -79 154 -121 249 -77 49 22 73 48 80 87 12 66 -31 100
-182 143 -115 33 -167 58 -205 98 -86 90 -52 247 67 311 81 44 209 48 295 11z
m-3467 -20 c7 -25 -20 -59 -47 -59 -32 0 -60 33 -51 60 14 43 87 42 98 -1z
m1990 25 c85 -29 170 -124 192 -216 l7 -28 -59 0 -60 0 -18 39 c-33 74 -96
111 -187 111 -95 -1 -157 -43 -200 -135 -19 -42 -23 -67 -23 -150 0 -83 4
-108 23 -150 44 -95 104 -135 202 -135 91 0 168 47 191 117 10 32 12 33 70 33
32 0 59 -4 59 -8 0 -5 -7 -29 -16 -55 -20 -60 -84 -131 -148 -165 -46 -24 -61
-27 -156 -27 -94 0 -110 3 -155 27 -123 64 -195 199 -195 363 0 189 97 339
250 386 45 13 174 10 223 -7z m1015 -376 l2 -388 -60 0 -60 0 -2 271 -3 270
-110 -270 -110 -271 -50 0 -50 0 -110 272 -110 271 -3 -271 -2 -272 -60 0 -60
0 0 385 0 385 74 0 74 0 107 -262 c59 -145 115 -281 124 -302 l17 -40 103 255
c57 139 114 278 127 307 l23 53 68 -3 68 -3 3 -387z m-4208 177 c0 -113 3
-205 8 -205 4 0 90 92 192 205 l185 205 49 0 48 0 -123 -132 c-68 -73 -142
-153 -166 -178 l-43 -45 160 -202 c88 -112 160 -205 160 -208 0 -3 -18 -5 -39
-5 -39 0 -40 1 -176 175 -75 96 -140 177 -145 180 -5 3 -31 -21 -59 -52 l-51
-58 0 -122 0 -123 -35 0 -35 0 0 385 0 385 35 0 35 0 0 -205z m1050 -180 l0
-385 -35 0 -35 0 0 385 0 385 35 0 35 0 0 -385z m-273 190 c59 -18 106 -65
122 -122 6 -21 11 -131 11 -245 l0 -208 -35 0 -35 0 0 48 -1 47 -15 -26 c-41
-65 -139 -97 -227 -74 -84 22 -127 79 -127 169 0 101 60 142 240 167 100 13
130 29 130 67 0 39 -31 95 -60 109 -35 18 -126 16 -166 -3 -19 -9 -42 -29 -51
-44 -14 -25 -19 -27 -45 -18 -35 12 -35 28 -2 68 58 68 162 94 261 65z m799 0
c60 -17 114 -69 146 -140 17 -40 22 -69 23 -140 0 -106 -14 -159 -58 -217 -48
-63 -98 -88 -178 -88 -75 0 -117 21 -156 79 l-23 34 0 -162 0 -161 -35 0 -35
0 0 400 0 400 30 0 c30 0 30 0 30 -57 l0 -57 37 44 c39 45 101 79 144 80 14 0
48 -7 75 -15z m471 3 c49 -12 115 -68 125 -106 5 -16 0 -23 -23 -31 -26 -9
-30 -7 -49 23 -24 40 -66 59 -125 58 -104 -1 -160 -81 -102 -147 16 -19 50
-34 126 -56 118 -34 151 -54 175 -103 38 -80 2 -165 -89 -207 -56 -26 -173
-26 -223 0 -45 23 -77 56 -92 95 -12 34 -14 32 26 40 28 6 32 4 44 -25 19 -45
64 -69 128 -69 71 0 121 24 138 67 18 42 9 79 -23 100 -14 9 -63 27 -110 39
-101 27 -140 49 -170 94 -57 84 1 203 113 229 55 13 79 13 131 -1z m479 -3
c67 -20 117 -64 151 -133 25 -51 28 -67 28 -157 -1 -83 -5 -108 -23 -146 -49
-100 -126 -150 -229 -150 -163 0 -262 128 -251 325 11 198 153 312 324 261z
m-1336 -285 l0 -290 -35 0 -35 0 0 290 0 290 35 0 35 0 0 -290z"/>
<path d="M1954 3400 c-11 -4 -56 -13 -100 -20 -104 -16 -139 -31 -159 -71 -14
-27 -15 -39 -6 -71 17 -57 59 -80 136 -76 107 6 164 73 165 191 0 59 -1 61
-36 47z"/>
<path d="M2570 3611 c-24 -12 -44 -36 -63 -73 -24 -47 -29 -67 -28 -134 0
-156 62 -244 171 -244 67 0 117 35 156 110 14 26 18 58 19 125 0 78 -4 97 -26
140 -34 66 -77 95 -143 95 -31 0 -65 -7 -86 -19z"/>
<path d="M3522 3613 c-113 -55 -140 -295 -44 -397 51 -54 128 -70 195 -42 76
31 124 139 114 253 -9 90 -47 157 -109 189 -36 19 -115 17 -156 -3z"/>
</g>
</svg>
